<svg xmlns="http://www.w3.org/2000/svg" width="33" height="36" viewBox="0 0 33 36" fill="none">
<path fill-rule="evenodd" clip-rule="evenodd" d="M24.6829 3.08772C25.6322 4.08376 25.882 4.44482 26.2193 5.37861C26.8813 7.13413 26.4317 9.01415 24.9827 10.5829C24.1707 11.4669 23.4337 12.0023 22.1721 12.6372C17.5878 14.9157 11.0423 14.9032 6.49549 12.5999C6.0458 12.3758 4.7592 11.6537 3.62249 10.9938C2.49827 10.3339 1.4365 9.79853 1.27412 9.79853C1.09924 9.79853 0.799445 9.97284 0.549619 10.2219L0.124913 10.6452L0.112422 12.0645C0.112422 12.8365 0.0874393 14.7289 0.0624567 16.2728L0 19.0742L0.349757 18.1404C1.88619 13.957 6.15823 13.2598 10.4428 16.5093C13.6655 18.9372 16.2262 22.9089 17.263 27.1047C17.5004 28.0261 17.5378 28.6237 17.5878 31.7238L17.6378 35.2971L18 35.6458C18.6745 36.2932 18.9369 36.206 22.6967 34.077C25.8695 32.2592 26.6065 31.811 26.0569 32.0102C25.932 32.0476 25.4448 32.1472 24.9827 32.2094C22.1721 32.6078 19.9362 30.9893 19.1617 27.9763C18.8744 26.8806 18.8744 24.6395 19.1617 23.2451C20.0486 19.0119 22.5843 14.7663 25.7321 12.2637C26.2818 11.828 27.6933 10.9066 28.88 10.2343C31.8029 8.57839 31.9528 8.46633 32.0403 8.04301C32.1527 7.545 31.703 6.63611 31.1909 6.32485L30.9761 6.20574C30.4553 5.91683 29.1677 5.20246 27.7932 4.44482C27.4151 4.23642 27.0423 4.0313 26.6894 3.8371L26.6891 3.83692L26.6888 3.83677L26.6872 3.83589C25.5018 3.18369 24.5409 2.65498 24.3581 2.5399C23.9834 2.32824 24.0208 2.40294 24.6829 3.08772ZM16.7386 0.0498657C16.3514 0.199272 14.1155 1.49412 14.0405 1.59373C14.003 1.65598 14.0405 1.70578 14.1155 1.70578C14.2404 1.70578 16.2765 2.85123 17.9253 3.85972C19.2119 4.6441 19.7365 5.37868 19.7365 6.38717C19.7365 8.35435 17.4881 9.7986 14.4277 9.7986C12.4791 9.7986 11.8795 9.58694 8.88158 7.84388C6.70809 6.57393 6.23342 6.38717 5.57138 6.57393C5.19664 6.67353 1.99886 8.42905 1.69907 8.69051C1.63661 8.74031 1.78651 8.86482 2.02384 8.96442C2.26118 9.06402 3.3854 9.6741 4.50962 10.334C7.00788 11.7658 7.81982 12.1766 8.86909 12.5128C10.6179 13.0855 12.1543 13.2972 14.3653 13.2972C17.9878 13.2972 21.0731 12.4257 23.2966 10.7573C24.7206 9.68655 25.3701 8.61581 25.4576 7.1591C25.5075 6.28756 25.4826 6.12571 25.1453 5.41603C24.7081 4.50714 23.9461 3.61071 23.1217 3.05043C22.8094 2.82632 21.5353 2.06684 20.2987 1.34472C18.5249 0.323776 17.9378 0.0498657 17.4881 0.012516C17.1758 -0.0123863 16.8386 6.48499e-05 16.7386 0.0498657ZM10.9797 3.84728C11.2295 3.37416 11.6167 2.96329 12.0539 2.72673C12.4287 2.51508 13.5654 2.55243 14.0275 2.77654C14.7146 3.12515 17.6625 4.85577 17.9873 5.10478C19.0241 5.88916 18.9741 7.04705 17.8624 7.86879C16.3259 9.00178 13.3405 9.11384 11.3669 8.1178L10.7423 7.80653V6.05101C10.7423 4.58186 10.7798 4.23324 10.9797 3.84728ZM32.415 9.27589C32.2776 9.40039 31.1534 10.0852 29.9168 10.7948C27.1187 12.3885 26.4317 12.8741 25.1326 14.1814C22.8842 16.4474 21.2228 19.3857 20.286 22.7473C20.1111 23.3823 20.0611 24.0297 20.0486 25.6732C20.0486 27.7275 20.0611 27.8147 20.3984 28.624C21.2728 30.6783 22.8966 31.5374 25.1326 31.1514C25.6447 31.0642 26.3193 30.8775 26.6316 30.7405C27.431 30.3919 31.6156 27.989 31.9654 27.6777C32.5524 27.1548 32.7273 26.5572 32.7273 24.8888V23.3574L32.3901 23.594C32.1902 23.7185 31.2284 24.3036 30.2291 24.8764C27.6683 26.3455 26.8814 26.5821 25.8821 26.1712C24.2207 25.474 23.7835 23.2702 24.8078 20.7428C25.6572 18.676 26.6565 17.68 29.5046 16.0739C31.7905 14.7915 32.54 14.1689 32.6649 13.5091C32.7023 13.2849 32.7273 12.1893 32.7023 11.0688L32.7022 11.0633C32.6649 9.05176 32.6646 9.03955 32.415 9.27589ZM3.03536 16.0363C3.27269 15.8993 3.75985 15.7001 4.13459 15.5881C5.90836 15.1025 8.33168 15.974 10.6551 17.9412C13.2782 20.1823 15.4892 23.905 16.3261 27.4658C16.4635 28.051 16.5385 29.3334 16.6009 31.9605C16.6384 33.9774 16.6634 35.6458 16.6509 35.6707C16.6384 35.6956 16.0263 35.3719 15.2769 34.9486C15.1201 34.8588 14.9713 34.7742 14.8303 34.6939L14.8302 34.6938C13.5433 33.9613 12.8943 33.5919 12.5678 33.0338C12.2356 32.466 12.2373 31.7029 12.2407 30.1634V30.1634L12.2407 30.1626C12.2411 29.999 12.2415 29.8266 12.2415 29.6447C12.2415 26.557 12.154 26.034 11.3921 24.4902C10.8424 23.3696 9.26853 21.7013 8.34417 21.2655C6.49545 20.394 4.75916 21.1659 4.37193 23.0584C4.28449 23.4692 4.24701 24.7018 4.272 26.1585C4.29698 27.5032 4.28449 28.5988 4.25951 28.5988C4.23452 28.5988 3.6974 28.3125 3.07283 27.9639C1.71127 27.1919 1.16166 26.7064 0.999268 26.1087C0.836881 25.5485 0.836881 20.8297 0.999268 19.7216C1.2366 18.1404 2.06103 16.6464 3.03536 16.0363ZM28.3428 17.8666C27.0437 18.6883 25.857 20.419 25.4198 22.1247C24.8577 24.2911 25.857 25.8225 27.4434 25.2248C27.9556 25.0381 31.5531 22.9838 31.9153 22.6725C32.4025 22.2492 32.7647 21.3154 32.6773 20.7053C32.5274 19.784 32.1152 19.3482 30.4913 18.3895L30.031 18.125L30.031 18.125C29.4253 17.7768 28.975 17.518 28.9549 17.518C28.9299 17.518 28.6551 17.6798 28.3428 17.8666ZM5.2463 25.9221C5.2463 23.2702 5.34623 22.7472 5.90834 22.2119C6.24561 21.9006 6.37052 21.8508 6.87017 21.9006C7.65713 21.9753 8.28169 22.3115 9.10612 23.071C10.3802 24.2538 11.2921 26.2209 11.2172 27.6527L11.1797 28.3873L9.69321 29.234C8.4191 29.9685 8.10682 30.093 7.60716 30.093C6.55789 30.093 5.90834 29.6946 5.48364 28.7857C5.28378 28.3624 5.2463 27.9516 5.2463 25.9221Z" fill="#F1F5F9"/>
</svg>
